<?xml version="1.0" encoding="utf-8"?>
<!-- Generator: Adobe Illustrator 23.0.1, SVG Export Plug-In . SVG Version: 6.00 Build 0)  -->
<svg version="1.1" id="Capa_1" xmlns="http://www.w3.org/2000/svg" xmlns:xlink="http://www.w3.org/1999/xlink" x="0px" y="0px"
	 viewBox="0 0 450.4 450.4" style="enable-background:new 0 0 450.4 450.4;" xml:space="preserve">
<style type="text/css">
	.st0{display:none;}
	.st1{display:inline;}
	.st2{fill:#29275B;}
</style>
<g class="st0">
	<g class="st1">
		<path d="M143.7,350.3c-26,0-47,21.1-47,47c0,26,21.1,47,47,47c26,0,47-21.1,47-47S169.6,350.3,143.7,350.3z M143.7,423.5
			c-14.4,0-26.1-11.7-26.1-26.1s11.7-26.1,26.1-26.1s26.1,11.7,26.1,26.1S158.1,423.5,143.7,423.5z"/>
		<path d="M342.2,350.3c-26,0-47,21.1-47,47c0,26,21.1,47,47,47s47-21.1,47-47S368.2,350.3,342.2,350.3z M342.2,423.5
			c-14.4,0-26.1-11.7-26.1-26.1s11.7-26.1,26.1-26.1s26.1,11.7,26.1,26.1C368.3,411.8,356.6,423.5,342.2,423.5z"/>
		<path d="M448.3,76c-2.2-2.4-5.2-3.9-8.4-4.2L99.8,67.2l-9.4-28.7C83.8,19.2,65.8,6.2,45.5,6h-35C4.7,6,0,10.7,0,16.5
			s4.7,10.4,10.4,10.4h35c11.4,0.3,21.4,7.5,25.1,18.3l66.4,200.1l-5.2,12c-5.8,15-4.1,31.9,4.7,45.5c8.7,13.3,23.3,21.5,39.2,21.9
			h203.2c5.8,0,10.4-4.7,10.4-10.4s-4.7-10.4-10.4-10.4H175.5c-9-0.2-17.2-4.9-21.9-12.5c-4.7-7.5-5.7-16.8-2.6-25.1l4.2-9.4l220-23
			c24.2-2.7,44-20.2,49.6-43.9l25.1-105C451,81.9,450.4,78.5,448.3,76z M404.4,185.2c-3.4,15.2-16.3,26.5-31.9,27.7l-217.3,22.5
			L106.6,88.1l320.3,4.7L404.4,185.2z"/>
	</g>
</g>
<g transform="translate(0.000000,109.000000) scale(0.100000,-0.100000)">
	<path class="st2" d="M3401.1-260.4c-571.1-571.1-650.7-664.5-633.4-737.2c20.8-72.7,145.4-166.1,221.5-166.1
		c13.8,0,315,290.7,674.9,647.2c668,664.5,716.5,737.2,595.3,854.9C4141.8,459.5,4069.1,407.6,3401.1-260.4z"/>
	<path class="st2" d="M47.2-841.9C33.4-852.2,23-1032.2,23-1236.4c0-335.7,6.9-377.3,65.8-411.9c38.1-17.3,103.8-34.6,148.8-34.6
		c76.1,0,90-45,266.5-771.8c103.8-422.3,211.1-803,238.8-844.5l48.5-79.6h1467.5h1467.5l48.5,79.6
		c24.2,41.5,131.5,422.3,231.9,844.5c183.4,754.5,190.4,771.8,276.9,771.8c186.9,0,207.7,51.9,197.3,467.3l-10.4,380.7l-446.5,10.4
		l-449.9,10.4l-242.3-242.3c-276.9-273.4-373.8-311.5-550.3-228.4c-173.1,79.6-259.6,321.9-155.8,425.7
		c31.2,31.2-245.7,41.5-1256.4,41.5C652.9-817.6,57.6-828,47.2-841.9z M1677.4-1724.5c45-45,62.3-1111,20.8-1218.3
		c-24.2-65.8-190.4-72.7-249.2-13.8c-27.7,27.7-41.5,211.1-41.5,602.2c0,463.8,10.4,571.1,55.4,616.1
		C1525.2-1672.5,1618.6-1665.6,1677.4-1724.5z M2369.7-1724.5c58.8-58.8,58.8-1173.3,0-1232.2c-51.9-51.9-176.5-51.9-228.4,0
		c-27.7,27.7-41.5,214.6-41.5,616.1c0,602.2,13.8,657.6,155.8,657.6C2297-1682.9,2345.4-1700.2,2369.7-1724.5z M3048.1-1738.3
		c45-45,55.4-152.3,55.4-616.1c0-391.1-13.8-574.6-41.5-602.2c-58.8-58.8-225-51.9-249.2,13.8c-41.5,107.3-24.2,1173.3,20.8,1218.3
		C2892.3-1665.6,2985.8-1672.5,3048.1-1738.3z"/>
</g>
</svg>
