<?xml version="1.0" encoding="utf-8"?>
<!-- Generator: Adobe Illustrator 23.0.1, SVG Export Plug-In . SVG Version: 6.00 Build 0)  -->
<svg version="1.1" id="Capa_1" xmlns="http://www.w3.org/2000/svg" xmlns:xlink="http://www.w3.org/1999/xlink" x="0px" y="0px"
	 viewBox="0 0 450.4 450.4" style="enable-background:new 0 0 450.4 450.4;" xml:space="preserve">
<style type="text/css">
	.st0{display:none;}
	.st1{display:inline;}
	.st2{fill:#29275B;}
</style>
<g class="st0">
	<g class="st1">
		<path d="M143.7,350.3c-26,0-47,21.1-47,47c0,26,21.1,47,47,47c26,0,47-21.1,47-47S169.6,350.3,143.7,350.3z M143.7,423.5
			c-14.4,0-26.1-11.7-26.1-26.1s11.7-26.1,26.1-26.1s26.1,11.7,26.1,26.1S158.1,423.5,143.7,423.5z"/>
		<path d="M342.2,350.3c-26,0-47,21.1-47,47c0,26,21.1,47,47,47s47-21.1,47-47S368.2,350.3,342.2,350.3z M342.2,423.5
			c-14.4,0-26.1-11.7-26.1-26.1s11.7-26.1,26.1-26.1s26.1,11.7,26.1,26.1C368.3,411.8,356.6,423.5,342.2,423.5z"/>
		<path d="M448.3,76c-2.2-2.4-5.2-3.9-8.4-4.2L99.8,67.2l-9.4-28.7C83.8,19.2,65.8,6.2,45.5,6h-35C4.7,6,0,10.7,0,16.5
			s4.7,10.4,10.4,10.4h35c11.4,0.3,21.4,7.5,25.1,18.3l66.4,200.1l-5.2,12c-5.8,15-4.1,31.9,4.7,45.5c8.7,13.3,23.3,21.5,39.2,21.9
			h203.2c5.8,0,10.4-4.7,10.4-10.4s-4.7-10.4-10.4-10.4H175.5c-9-0.2-17.2-4.9-21.9-12.5c-4.7-7.5-5.7-16.8-2.6-25.1l4.2-9.4l220-23
			c24.2-2.7,44-20.2,49.6-43.9l25.1-105C451,81.9,450.4,78.5,448.3,76z M404.4,185.2c-3.4,15.2-16.3,26.5-31.9,27.7l-217.3,22.5
			L106.6,88.1l320.3,4.7L404.4,185.2z"/>
	</g>
</g>
<g transform="translate(0.000000,512.000000) scale(0.100000,-0.100000)">
	<path class="st2" d="M1965.6,5035.4c-175.2-30.2-368.9-109-517.9-210.3c-90.5-60.4-239.5-202.5-304.7-289.1
		c-230.7-308.6-310.5-706.7-219-1088.3c12.7-54.5,35-126.5,48.7-160.6c38-93.4,1215.8-2597.1,1221.7-2597.1
		c11.7,0,1202.2,2542.6,1237.2,2642.9c20.4,59.4,43.8,147,52.6,194.7c20.4,115.8,20.4,341.7,0,457.5
		c-33.1,186.9-113.9,376.7-225.8,532.5c-69.1,96.4-219,242.4-314.4,306.6c-154.8,104.2-347.5,182-524.7,211.2
		C2305.3,5054.9,2073.6,5054.9,1965.6,5035.4z M2329.6,4234.3c189.8-59.4,312.5-227.8,312.5-430.3c0-253.1-193.7-446.8-447.8-446.8
		s-447.8,193.7-447.8,446.8c0,200.5,121.7,369.9,309.6,430.3C2132,4257.6,2252.7,4258.6,2329.6,4234.3z"/>
</g>
</svg>
