<?xml version="1.0" encoding="utf-8"?>
<!-- Generator: Adobe Illustrator 23.0.1, SVG Export Plug-In . SVG Version: 6.00 Build 0)  -->
<svg version="1.1" id="layer" xmlns="http://www.w3.org/2000/svg" xmlns:xlink="http://www.w3.org/1999/xlink" x="0px" y="0px"
	 viewBox="0 0 496.9 103.1" style="enable-background:new 0 0 496.9 103.1;" xml:space="preserve">
<style type="text/css">
	.st0{fill:#00B67A;}
	.st1{fill:#FFFFFF;}
</style>
<rect x="9.3" y="5.8" class="st0" width="92" height="92"/>
<path class="st1" d="M96.4,43.1h-32l-9.9-30.4l-9.9,30.4l-32-0.1l25.9,18.8l-9.9,30.4l25.9-18.8l25.9,18.8l-9.9-30.4L96.4,43.1z"/>
<path class="st0" d="M72.7,68.7l-2.2-6.9l-16,11.6L72.7,68.7z"/>
<rect x="106.9" y="5.6" class="st0" width="92" height="92"/>
<path class="st1" d="M194,42.8h-32l-9.9-30.4l-9.9,30.4l-32-0.1l25.9,18.8l-9.9,30.4L152,73.2l25.9,18.8l-9.9-30.4L194,42.8z"/>
<path class="st0" d="M170.3,68.5l-2.2-6.9l-16,11.6L170.3,68.5z"/>
<rect x="204.3" y="5.8" class="st0" width="92" height="92"/>
<path class="st1" d="M291.4,43.1h-32l-9.9-30.4l-9.9,30.4l-32-0.1l25.9,18.8l-9.9,30.4l25.9-18.8l25.9,18.8l-9.9-30.4L291.4,43.1z"
	/>
<path class="st0" d="M267.7,68.7l-2.2-6.9l-16,11.6L267.7,68.7z"/>
<rect x="301.9" y="5.6" class="st0" width="92" height="92"/>
<path class="st1" d="M389,42.8h-32l-9.9-30.4l-9.9,30.4l-32-0.1l25.9,18.8l-9.9,30.4L347,73.2l25.9,18.8l-9.9-30.4L389,42.8z"/>
<path class="st0" d="M365.3,68.5l-2.2-6.9l-16,11.6L365.3,68.5z"/>
<rect x="398.6" y="5.4" class="st0" width="92" height="92"/>
<path class="st1" d="M485.6,42.6h-32l-9.9-30.4l-9.9,30.4l-32-0.1l25.9,18.8l-9.9,30.4L443.7,73l25.9,18.8l-9.9-30.4L485.6,42.6z"/>
<path class="st0" d="M461.9,68.3l-2.2-6.9l-16,11.6L461.9,68.3z"/>
</svg>
