<?xml version="1.0" encoding="utf-8"?>
<!-- Generator: Adobe Illustrator 23.0.1, SVG Export Plug-In . SVG Version: 6.00 Build 0)  -->
<svg version="1.1" id="Capa_1" xmlns="http://www.w3.org/2000/svg" xmlns:xlink="http://www.w3.org/1999/xlink" x="0px" y="0px"
	 viewBox="0 0 450.4 450.4" style="enable-background:new 0 0 450.4 450.4;" xml:space="preserve">
<style type="text/css">
	.st0{display:none;}
	.st1{display:inline;}
	.st2{fill:#29275B;}
</style>
<g class="st0">
	<g class="st1">
		<path d="M143.7,350.3c-26,0-47,21.1-47,47c0,26,21.1,47,47,47c26,0,47-21.1,47-47S169.6,350.3,143.7,350.3z M143.7,423.5
			c-14.4,0-26.1-11.7-26.1-26.1s11.7-26.1,26.1-26.1s26.1,11.7,26.1,26.1S158.1,423.5,143.7,423.5z"/>
		<path d="M342.2,350.3c-26,0-47,21.1-47,47c0,26,21.1,47,47,47s47-21.1,47-47S368.2,350.3,342.2,350.3z M342.2,423.5
			c-14.4,0-26.1-11.7-26.1-26.1s11.7-26.1,26.1-26.1s26.1,11.7,26.1,26.1C368.3,411.8,356.6,423.5,342.2,423.5z"/>
		<path d="M448.3,76c-2.2-2.4-5.2-3.9-8.4-4.2L99.8,67.2l-9.4-28.7C83.8,19.2,65.8,6.2,45.5,6h-35C4.7,6,0,10.7,0,16.5
			s4.7,10.4,10.4,10.4h35c11.4,0.3,21.4,7.5,25.1,18.3l66.4,200.1l-5.2,12c-5.8,15-4.1,31.9,4.7,45.5c8.7,13.3,23.3,21.5,39.2,21.9
			h203.2c5.8,0,10.4-4.7,10.4-10.4s-4.7-10.4-10.4-10.4H175.5c-9-0.2-17.2-4.9-21.9-12.5c-4.7-7.5-5.7-16.8-2.6-25.1l4.2-9.4l220-23
			c24.2-2.7,44-20.2,49.6-43.9l25.1-105C451,81.9,450.4,78.5,448.3,76z M404.4,185.2c-3.4,15.2-16.3,26.5-31.9,27.7l-217.3,22.5
			L106.6,88.1l320.3,4.7L404.4,185.2z"/>
	</g>
</g>
<g transform="translate(0.000000,256.000000) scale(0.100000,-0.100000)">
	<path class="st2" d="M2000.7,2226.4c-218.4-36-468-172.8-650.3-357.6c-571.1-571.1-480-1490.3,192-1941.4
		c216-141.6,422.4-204,695.9-204c1130.3,0,1687,1348.7,887.9,2145.4C2821.5,2176,2435.1,2298.4,2000.7,2226.4z"/>
	<path class="st2" d="M1026.4-139.8C580.1-432.5,212.9-943.7,95.3-1442.8c-74.4-309.6-76.8-333.6-14.4-398.4l52.8-57.6h2104.6
		h2104.6l52.8,57.6c62.4,64.8,60,88.8-14.4,398.4c-120,501.6-489.6,1015.1-935.9,1305.5L3272.6-27l-151.2-115.2
		c-254.4-192-602.3-316.8-883.1-316.8s-628.7,124.8-883.1,316.8c-84,64.8-153.6,115.2-156,115.2C1196.8-29.4,1120-79.8,1026.4-139.8
		z"/>
</g>
</svg>
